/* XPM */
static char *gripfcs[] = {
/* columns rows colors chars-per-pixel */
"19 19 127 2 ",
"   c gray36",
".  c #646464",
"X  c #686767",
"o  c #676768",
"O  c #686768",
"+  c #6C6C6C",
"@  c #706F6F",
"#  c #70706F",
"$  c #747474",
"%  c #7C7C7C",
"&  c #7F7F80",
"*  c #7F8080",
"=  c #848484",
"-  c #878788",
";  c gray55",
":  c #908F90",
">  c #939394",
",  c #979798",
"<  c #9B9B9B",
"1  c #A09FA0",
"2  c gray64",
"3  c #A8A7A7",
"4  c #A8A7A8",
"5  c #A7A8A8",
"6  c #ACACAB",
"7  c #ACACAC",
"8  c #AEADAD",
"9  c #AEAEAE",
"0  c #AFAFAF",
"q  c #AAAAAA",
"w  c gray69",
"e  c #B1B0B0",
"r  c #B0B1B1",
"t  c #B1B1B1",
"y  c #B1B2B1",
"u  c #B2B2B1",
"i  c #B1B2B2",
"p  c #B2B2B2",
"a  c #B2B3B2",
"s  c gray70",
"d  c #B4B4B4",
"f  c #B5B5B4",
"g  c gray71",
"h  c #B5B5B6",
"j  c #B6B5B6",
"k  c #B5B6B6",
"l  c #B7B7B6",
"z  c #B7B7B7",
"x  c #B7B7B7",
"c  c #B7B7B8",
"v  c gray72",
"b  c #B8B9B8",
"n  c #B9B9B8",
"m  c #B9B9B9",
"M  c #B9BAB9",
"N  c #B9BABA",
"B  c gray73",
"V  c #BABBBA",
"C  c #BBBBBB",
"Z  c #BCBBBB",
"A  c #BBBCBB",
"S  c #BCBCBC",
"D  c #BDBDBC",
"F  c #BDBEBE",
"G  c #BEBFBE",
"H  c #BFBEBF",
"J  c gray",
"K  c #BFBFC0",
"L  c #C0C0C0",
"P  c #C0C0C1",
"I  c #C1C1C1",
"U  c #C1C2C1",
"Y  c gray76",
"T  c #C3C2C3",
"R  c #C3C3C3",
"E  c gray77",
"W  c #C5C4C5",
"Q  c #C5C6C5",
"!  c #C5C5C6",
"~  c #C6C5C6",
"^  c #C6C6C6",
"/  c gray78",
"(  c #C5C5C5",
")  c #C8C7C8",
"_  c #C8C8C8",
"`  c #C8C9C8",
"'  c #C8C9C9",
"]  c gray79",
"[  c #CAC9C9",
"{  c #CAC9CA",
"}  c #CACBCA",
"|  c #CBCBCB",
" . c #CBCCCC",
".. c gray80",
"X. c #CCCDCC",
"o. c #CDCDCD",
"O. c #CECFCE",
"+. c #CFCFCE",
"@. c gray81",
"#. c gray80",
"$. c #CFCFD0",
"%. c #D0D0D0",
"&. c #D1D1D2",
"*. c LightGray",
"=. c gray83",
"-. c #D4D5D4",
";. c #D6D5D5",
":. c gray84",
">. c #D7D6D7",
",. c #D2D3D3",
"<. c #D8D7D8",
"1. c #D7D8D8",
"2. c #DAD9D9",
"3. c #DBDADA",
"4. c gray86",
"5. c gainsboro",
"6. c #DDDDDD",
"7. c #DDDEDD",
"8. c #DFDFDF",
"9. c #DBDBDC",
"0. c #E0E1E1",
"q. c #E4E3E3",
"w. c #E5E5E4",
"e. c #E6E7E6",
"r. c #E6E6E7",
"t. c #E4E4E4",
"y. c #ECECEC",
/* pixels */
"    . . . . . X O o X . . . . .       ",
". . . O O + + + @ + # + + + O O . .   ",
"O + + $ $ $ $ $ $ $ $ $ $ $ $ + + O . ",
"+ $ $ $ $ % % % % % % % % $ $ $ $ # + ",
"$ $ % % = = - - - - - - = = % % $ $ $ ",
"% & = - - - ; ; ; ; ; ; - - - = = % $ ",
"= - - ; ; > > , , , , > > : ; ; - = * ",
"- ; > > , , , , < < < , , , , > ; - - ",
"; > , , < 1 2 2 2 2 2 2 2 < , , , > ; ",
", , < 2 2 2 q q q q q q 4 2 2 < , , > ",
", < 2 3 q 0 p p p p p p 0 6 q 2 2 < , ",
"2 2 q 0 p k c M M M M M k p 0 q 2 2 < ",
"2 q p k M Z D R R R R D D M k p 0 5 2 ",
"q p k M D R / / [ [ ) / R R A k p 0 2 ",
"p k M R / [ ....%.%.$...[ / R D k p q ",
"k M R / [ ..%.=.<.1.=.=.%.../ R Z k 0 ",
"k D / [ %.=.3.6.6.6.6.3.=.%. ./ K M p ",
"M R [ ..=.3.6.q.w.w.w.0.6.=.%.[ R D k ",
"D / [ %.3.6.w.y.y.y.y.w.0.3.=.../ D k "
};
