/* XPM */
static char *stickpr[] = {
/* columns rows colors chars-per-pixel */
"19 19 58 1 ",
"  c #585858",
". c #434343",
"X c #2C2C2C",
"o c #202020",
"O c #1D1D1D",
"+ c gray11",
"@ c gray10",
"# c #181818",
"$ c #161515",
"% c #151514",
"& c gray8",
"* c #151515",
"= c gray9",
"- c #191919",
"; c gray7",
": c #101010",
"> c #111111",
", c #131313",
"< c #373737",
"1 c gray20",
"2 c #171818",
"3 c #0E0E0E",
"4 c #0C0C0C",
"5 c gray5",
"6 c gray6",
"7 c #161616",
"8 c #979797",
"9 c gray61",
"0 c gray29",
"q c #333233",
"w c #2A2A2A",
"e c #0E0F0F",
"r c #090909",
"t c #343434",
"y c #4B4C4C",
"u c gray60",
"i c #ACACAC",
"p c gray59",
"a c #414141",
"s c #2F2F2F",
"d c gray19",
"f c gray26",
"g c #959595",
"h c gray67",
"j c #989898",
"k c #0E0D0D",
"l c gray4",
"z c #272727",
"x c #484848",
"c c #9B9A9B",
"v c #0B0B0B",
"b c #141514",
"n c #323232",
"m c #1B1B1B",
"M c #141415",
"N c #151516",
"B c #1E1E1E",
"V c #232323",
/* pixels */
"                   ",
"...................",
"XXXXXXXXXXXXXXXXXXX",
"ooooooooooooooooooo",
"OOOOOOOOOOOOOOOOOOO",
"+++++O@#$%&*=-+++++",
"@@@@@@=&;::>,*-@@@@",
"#####<1234456;7####",
"=====890qwer4:&====",
"77777tyuipasX7,7777",
"=====*7Xdfghj01====",
"=====$>kl5zdxcp====",
"======,:5vv4bnt====",
"-----@7,>66:;*#----",
"mmmmm+-=M,,&N#mmmmm",
"BBBBBBBBBBBBBBBBBBB",
"BBBBBBBBBBBBBBBBBBB",
"BBBBBBBBBBBBBBBBBBB",
"VVVVVVVVVVVVVVVVVVV"
};
