/* XPM */
static char *stuckfcs[] = {
/* columns rows colors chars-per-pixel */
"19 19 56 1 ",
"  c #585858",
". c #434343",
"X c #2C2C2C",
"o c #202020",
"O c #1D1D1D",
"+ c #222222",
"@ c gray11",
"# c gray53",
"$ c #4C4C4C",
"% c #1E1E1E",
"& c #161515",
"* c #151514",
"= c gray8",
"- c #151515",
"; c gray9",
": c #191919",
"> c gray10",
", c gray12",
"< c #8B8B8B",
"1 c #484848",
"2 c #101010",
"3 c #111111",
"4 c #131313",
"5 c #181818",
"6 c #878888",
"7 c #0C0C0C",
"8 c gray5",
"9 c gray6",
"0 c gray7",
"q c #161616",
"w c #858485",
"e c #3E3E3E",
"r c #0E0F0F",
"t c #090909",
"y c #101111",
"u c #818181",
"i c #3A3A3A",
"p c #0A0A0B",
"a c #0E0E0E",
"s c gray23",
"d c #808080",
"f c gray24",
"g c #0E0D0D",
"h c gray4",
"j c #838383",
"k c #414141",
"l c #171617",
"z c #0B0B0B",
"x c #868786",
"c c #464646",
"v c #1B1B1B",
"b c gray54",
"n c #4B4B4B",
"m c #141415",
"M c #868686",
"N c #232323",
/* pixels */
"                   ",
"...................",
"XXXXXXXXXXXXXXXXXXX",
"ooooooooooooooooooo",
"OOOOOO+OOOOOOOOOOOO",
"@@@@@#$%&*=-;:@@@@@",
">>>>,$<1:2234-:>>>>",
"55555O16.47890q5555",
";;;;;q5.wert72=;;;;",
"qqqqq-y0eui8p94qqqq",
";;;;;-27asdf3a4;;;;",
";;;;;&3gh8fjkl=;;;;",
";;;;;;428z3kxcv;;;;",
":::::>q4399qcbn::::",
"vvvvv@:;m44=vnMvvvv",
"%%%%%%%%%%%%%%%%%%%",
"%%%%%%%%%%%%%%%%%%%",
"%%%%%%%%%%%%%%%%%%%",
"NNNNNNNNNNNNNNNNNNN"
};
