/* XPM */
static char *tbarfcs[] = {
/* columns rows colors chars-per-pixel */
"19 19 14 1 ",
"  c #585858",
". c #434343",
"X c #2C2C2C",
"o c #202020",
"O c #1D1D1D",
"+ c gray11",
"@ c gray10",
"# c #181818",
"$ c gray9",
"% c #161616",
"& c #191919",
"* c #1B1B1B",
"= c #1E1E1E",
"- c #232323",
/* pixels */
"                   ",
"...................",
"XXXXXXXXXXXXXXXXXXX",
"ooooooooooooooooooo",
"OOOOOOOOOOOOOOOOOOO",
"+++++++++++++++++++",
"@@@@@@@@@@@@@@@@@@@",
"###################",
"$$$$$$$$$$$$$$$$$$$",
"%%%%%%%%%%%%%%%%%%%",
"$$$$$$$$$$$$$$$$$$$",
"$$$$$$$$$$$$$$$$$$$",
"$$$$$$$$$$$$$$$$$$$",
"&&&&&&&&&&&&&&&&&&&",
"*******************",
"===================",
"===================",
"===================",
"-------------------"
};
